#include "pitches.h"

int melody[] = {
  NOTE_DS5, NOTE_F5, NOTE_FS5, NOTE_GS5, NOTE_AS5, NOTE_DS6, NOTE_CS6, NOTE_AS5, NOTE_DS5, NOTE_AS5,
  NOTE_GS5, NOTE_FS5, NOTE_F5, NOTE_DS5, NOTE_F5, NOTE_FS5, NOTE_GS5, NOTE_AS5, NOTE_GS5, NOTE_FS5,
  NOTE_F5, NOTE_DS5, NOTE_F5, NOTE_FS5, NOTE_F5, NOTE_DS5, NOTE_D5, NOTE_F5, NOTE_DS5, NOTE_F5,
  NOTE_FS5, NOTE_GS5, NOTE_AS5, NOTE_DS6, NOTE_CS6, NOTE_AS5, NOTE_DS5, NOTE_AS5, NOTE_GS5, NOTE_FS5,
  NOTE_F5, NOTE_DS5, NOTE_F5, NOTE_FS5, NOTE_GS5, NOTE_AS5, NOTE_GS5, NOTE_FS5, NOTE_F5, NOTE_FS5,
  NOTE_GS5, NOTE_AS5, NOTE_DS5, NOTE_F5, NOTE_FS5, NOTE_GS5, NOTE_AS5, NOTE_DS6, NOTE_CS6, NOTE_AS5,
  NOTE_DS5, NOTE_AS5, NOTE_GS5, NOTE_FS5, NOTE_F5, NOTE_DS5, NOTE_F5, NOTE_FS5, NOTE_GS5, NOTE_AS5,
  NOTE_GS5, NOTE_FS5, NOTE_F5, NOTE_DS5, NOTE_F5, NOTE_FS5, NOTE_F5, NOTE_DS5, NOTE_D5, NOTE_F5,
  NOTE_DS5, NOTE_D5, NOTE_F5, NOTE_DS5, NOTE_F5, NOTE_FS5, NOTE_GS5, NOTE_AS5, NOTE_DS6, NOTE_CS6,
  NOTE_AS5, NOTE_DS5, NOTE_AS5, NOTE_GS5, NOTE_FS5, NOTE_F5, NOTE_DS5, NOTE_F5, NOTE_FS5, NOTE_GS5,
  NOTE_AS5, NOTE_GS5, NOTE_FS5, NOTE_F5, NOTE_FS5, NOTE_GS5, NOTE_AS5, NOTE_CS6, NOTE_DS6, NOTE_AS5, 
  NOTE_GS5, NOTE_AS5, NOTE_GS5, NOTE_AS5, NOTE_CS6, NOTE_DS6, NOTE_AS5, NOTE_GS5, NOTE_AS5, NOTE_GS5, 
  NOTE_AS5, NOTE_GS5, NOTE_FS5, NOTE_F5, NOTE_CS5, NOTE_DS5, NOTE_CS5, NOTE_DS5, NOTE_F5, NOTE_FS5,
  NOTE_GS5, NOTE_AS5, NOTE_DS5, NOTE_AS5, NOTE_CS6, NOTE_CS6, NOTE_D6, NOTE_AS5, NOTE_GS5, NOTE_AS5,
  NOTE_GS5, NOTE_AS5, NOTE_CS6, NOTE_DS6, NOTE_AS5, NOTE_GS5, NOTE_AS5, NOTE_GS5, NOTE_AS5, NOTE_GS5,
  NOTE_FS5, NOTE_F5, NOTE_CS5, NOTE_DS5, NOTE_CS5, NOTE_DS5, NOTE_F5, NOTE_FS5, NOTE_GS5, NOTE_AS5, NOTE_DS5,
  
  NOTE_AS6, NOTE_CS7, NOTE_CS7, NOTE_DS7, NOTE_AS6, NOTE_GS6, NOTE_AS6, NOTE_GS6, NOTE_AS6, NOTE_CS7,
  NOTE_DS7, NOTE_AS6, NOTE_GS6, NOTE_AS6, NOTE_GS6, NOTE_AS6, NOTE_GS6, NOTE_FS6, NOTE_F6, NOTE_CS6,
  NOTE_DS6, NOTE_CS6, NOTE_DS6, NOTE_F6, NOTE_FS6, NOTE_GS6, NOTE_AS6, NOTE_DS6, NOTE_AS6, NOTE_CS7,
  NOTE_CS7, NOTE_DS7, NOTE_AS6, NOTE_GS6, NOTE_AS6, NOTE_GS6, NOTE_AS6, NOTE_CS7, NOTE_DS7, NOTE_AS6,
  NOTE_GS6, NOTE_AS6, NOTE_DS7, NOTE_F7, NOTE_FS7, NOTE_F7, NOTE_DS7, NOTE_CS7, NOTE_AS6, NOTE_GS6,
  NOTE_AS6, NOTE_GS6, NOTE_FS6, NOTE_F6, NOTE_CS6, NOTE_DS6, NOTE_AS5, NOTE_CS6, NOTE_CS6, NOTE_DS6,
  NOTE_AS5, NOTE_GS6, NOTE_AS5, NOTE_GS5, NOTE_AS5, NOTE_CS6, NOTE_DS6, NOTE_AS5, NOTE_GS5, NOTE_AS5,
  NOTE_GS5, NOTE_AS5, NOTE_CS6, NOTE_DS6, NOTE_AS5, NOTE_GS5, NOTE_AS5, NOTE_GS5, NOTE_AS5, NOTE_GS5,
  NOTE_FS5, NOTE_F5, NOTE_CS5, NOTE_DS5, NOTE_CS5, NOTE_DS5, NOTE_F5, NOTE_FS5, NOTE_GS5, NOTE_AS5,
  NOTE_DS5, NOTE_AS5, NOTE_CS6, NOTE_CS6, NOTE_DS6, NOTE_AS5, NOTE_GS5, NOTE_AS5, NOTE_GS5, NOTE_AS5, 
  NOTE_CS6, NOTE_DS6, NOTE_AS5, NOTE_GS5, NOTE_AS5, NOTE_GS5, NOTE_AS5, NOTE_GS5, NOTE_FS5, NOTE_F5,
  NOTE_CS5, NOTE_DS5, NOTE_CS5, NOTE_DS5, NOTE_F5, NOTE_FS5, NOTE_GS5, NOTE_AS5, NOTE_DS5,
  
  NOTE_AS6, NOTE_CS7, NOTE_CS7, NOTE_DS7, NOTE_AS6, NOTE_GS6, NOTE_AS6, NOTE_GS6, NOTE_AS6, NOTE_CS7,
  NOTE_DS7, NOTE_AS6, NOTE_GS6, NOTE_AS6, NOTE_GS6, NOTE_AS6, NOTE_GS6, NOTE_FS6, NOTE_F6, NOTE_CS6,
  NOTE_DS6, NOTE_CS6, NOTE_DS6, NOTE_F6, NOTE_FS6, NOTE_GS6, NOTE_AS6, NOTE_DS6, NOTE_AS6, NOTE_CS7,
  NOTE_CS7, NOTE_DS7, NOTE_AS6, NOTE_GS6, NOTE_AS6, NOTE_GS6, NOTE_AS6, NOTE_CS7, NOTE_DS7, NOTE_AS6,
  NOTE_GS6, NOTE_AS6, NOTE_DS7, NOTE_F7, NOTE_FS7, NOTE_F7, NOTE_DS7, NOTE_CS7, NOTE_AS6, NOTE_GS6,
  NOTE_AS6, NOTE_GS6, NOTE_FS6, NOTE_F6, NOTE_CS6, NOTE_DS6, 0
    
};


int noteDurations[] = {
  5, 5, 5, 5, 3, 5, 5, 3, 3, 5,
  5, 5, 5, 5, 5, 5, 5, 3, 5, 5,
  5, 5, 5, 5, 5, 5, 5, 5, 5, 5,
  5, 5, 3, 5, 5, 3, 3, 5, 5, 5,
  5, 5, 5, 5, 5, 3, 5, 5, 3, 3,
  3, 3, 5, 5, 5, 5, 3, 5, 5, 3,
  3, 5, 5, 5, 5, 5, 5, 5, 5, 3,
  5, 5, 5, 5, 5, 5, 5, 5, 5, 5,
  5, 5, 5, 5, 5, 5, 5, 3, 5, 5,
  3, 3, 5, 5, 5, 5, 5, 5, 5, 5,
  3, 5, 5, 3, 3, 3, 3, 5, 5, 5,
  5, 3, 5, 5, 5, 5, 5, 5, 3, 5, 
  5, 5, 5, 5, 5, 3, 5, 5, 5, 5,
  5, 5, 3, 5, 5, 5, 5, 5, 5, 3,
  5, 5, 5, 5, 5, 5, 3, 5, 5, 5,
  5, 5, 5, 3, 5, 5, 5, 5, 5, 5, 3,
  
  5, 5, 5, 5, 5, 5, 3, 5, 5, 5, 
  5, 5, 5, 3, 5, 5, 5, 5, 5, 5,
  3, 5, 5, 5, 5, 5, 5, 3, 5, 5,
  5, 5, 5, 5, 3, 5, 5, 5, 5, 5,
  5, 3, 5, 5, 5, 5, 5, 5, 3, 5,
  5, 5, 5, 5, 5, 3, 5, 5, 5, 5, 
  5, 5, 3, 5, 5, 5, 5, 5, 5, 3, 
  5, 5, 5, 5, 5, 5, 3, 5, 5, 5,
  5, 5, 5, 3, 5, 5, 5, 5, 5, 5,
  3, 5, 5, 5, 5, 5, 5, 3, 5, 5,
  5, 5, 5, 5, 3, 5, 5, 5, 5, 5,
  5, 3, 5, 5, 5, 5, 5, 5, 3,
  
  5, 5, 5, 5, 5, 5, 3, 5, 5, 5,
  5, 5, 5, 3, 5, 5, 5, 5, 5, 5,
  3, 5, 5, 5, 5, 5, 5, 3, 5, 5,
  5, 5, 5, 5, 3, 5, 5, 5, 5, 5,
  5, 3, 5, 5, 5, 5, 5, 5, 3, 3,
  5, 5, 5, 5, 5, 1, 5,
};

void setup() {
  for (int thisNote = 0; thisNote < 500; thisNote++) {
    int noteDuration = 1000 / noteDurations[thisNote];
    tone(8, melody[thisNote], noteDuration);
    int pauseBetweenNotes = noteDuration * 1.30;
    delay(pauseBetweenNotes);
    noTone(8);
  }
}

void loop() {
  // no need to repeat the melody.
}
